<?xml version="1.0" standalone="no"?>
<!DOCTYPE svg PUBLIC "-//W3C//DTD SVG 20010904//EN"
 "http://www.w3.org/TR/2001/REC-SVG-20010904/DTD/svg10.dtd">
<svg version="1.0" xmlns="http://www.w3.org/2000/svg"
 width="206.000000pt" height="220.000000pt" viewBox="0 0 206.000000 220.000000"
 preserveAspectRatio="xMidYMid meet">

<g transform="translate(0.000000,220.000000) scale(0.100000,-0.100000)"
fill="#000000" stroke="none">
<path d="M585 2186 c-75 -34 -119 -104 -119 -186 2 -202 263 -277 369 -105 57
92 32 210 -58 272 -47 32 -143 42 -192 19z"/>
<path d="M1281 2177 c-24 -12 -57 -42 -75 -66 -27 -37 -31 -51 -31 -104 0 -78
26 -131 84 -172 38 -27 51 -30 115 -30 60 0 78 4 108 24 105 72 123 211 39
304 -20 22 -50 46 -68 54 -50 20 -123 16 -172 -10z"/>
<path d="M428 1746 c-73 -32 -108 -91 -108 -181 l0 -65 700 0 700 0 0 65 c0
37 -6 78 -14 93 -19 36 -65 78 -99 91 -37 14 -426 14 -464 0 -28 -10 -103 -76
-103 -90 0 -4 -5 -20 -11 -36 l-11 -28 -13 39 c-16 47 -59 94 -102 112 -43 18
-434 18 -475 0z"/>
<path d="M242 1478 c-9 -9 -12 -129 -12 -479 0 -402 2 -470 15 -483 13 -13 1
-38 -105 -221 -123 -211 -142 -264 -104 -279 9 -3 455 -6 993 -6 747 0 980 3
989 12 7 7 12 21 12 33 1 32 -201 445 -218 445 -10 0 -12 5 -6 17 5 10 10 222
12 472 2 395 0 457 -13 477 l-15 24 -768 0 c-584 0 -771 -3 -780 -12z m581 -5
c-7 -2 -13 -13 -13 -24 0 -18 -10 -19 -234 -19 -129 0 -246 -4 -260 -10 l-26
-10 0 -403 c0 -300 3 -406 12 -415 17 -17 1429 -17 1446 0 9 9 12 114 12 409
l0 398 -22 15 c-19 13 -61 16 -259 16 l-237 0 -4 25 -5 25 273 0 c260 0 274
-1 284 -19 6 -13 10 -180 10 -475 0 -440 -1 -456 -19 -466 -11 -6 -90 -10
-184 -10 -134 0 -167 3 -177 15 -19 23 -788 23 -796 0 -5 -13 -34 -15 -178
-15 -120 0 -176 4 -184 12 -17 17 -17 929 0 946 9 9 87 12 293 11 154 0 274
-3 268 -6z m279 0 c-51 -2 -132 -2 -180 0 -48 1 -6 3 93 3 99 0 138 -2 87 -3z
m-179 -20 c-13 -2 -35 -2 -50 0 -16 2 -5 4 22 4 28 0 40 -2 28 -4z m90 0 c-7
-2 -21 -2 -30 0 -10 3 -4 5 12 5 17 0 24 -2 18 -5z m711 -49 c14 -5 16 -50 16
-400 l0 -394 -709 0 c-637 0 -709 2 -715 16 -3 9 -6 186 -6 394 0 293 3 379
13 383 18 8 1382 8 1401 1z m-309 -904 c0 -13 -51 -15 -384 -18 -226 -1 -389
2 -394 7 -28 28 11 31 391 29 336 -3 387 -5 387 -18z m-791 -25 c6 -17 13 -16
-131 -17 -82 0 -105 -3 -116 -17 -18 -20 -136 -207 -144 -226 -4 -13 30 -15
251 -15 l256 0 -7 -27 c-18 -74 -42 -68 287 -68 329 0 301 -7 286 68 -5 26 -4
27 39 27 36 0 45 4 46 18 1 16 2 16 6 0 4 -16 23 -18 214 -18 l209 0 -19 37
c-11 21 -44 79 -73 128 l-54 90 -109 2 c-61 1 -118 2 -127 2 -11 1 -15 6 -12
16 5 13 36 15 196 15 l190 0 98 -202 c54 -112 96 -206 93 -211 -2 -4 -445 -7
-984 -7 -799 0 -980 2 -977 13 2 7 55 102 118 210 l115 197 171 0 c144 0 173
-2 178 -15z m-164 -50 c0 -11 -11 -15 -40 -15 -38 0 -49 8 -33 23 3 4 21 7 40
7 23 0 33 -5 33 -15z m110 0 c0 -11 -11 -15 -40 -15 -38 0 -49 8 -33 23 3 4
21 7 40 7 23 0 33 -5 33 -15z m118 3 c-5 -15 -88 -24 -88 -10 0 16 13 22 53
22 26 0 37 -4 35 -12z m102 -3 c0 -11 -11 -15 -40 -15 -38 0 -49 8 -33 23 3 4
21 7 40 7 23 0 33 -5 33 -15z m110 0 c0 -11 -11 -15 -40 -15 -29 0 -40 4 -40
15 0 11 11 15 40 15 29 0 40 -4 40 -15z m110 0 c0 -11 -11 -15 -40 -15 -29 0
-40 4 -40 15 0 11 11 15 40 15 29 0 40 -4 40 -15z m110 0 c0 -11 -11 -15 -40
-15 -29 0 -40 4 -40 15 0 11 11 15 40 15 29 0 40 -4 40 -15z m110 0 c0 -11
-11 -15 -40 -15 -29 0 -40 4 -40 15 0 11 11 15 40 15 29 0 40 -4 40 -15z m110
0 c0 -11 -11 -15 -40 -15 -29 0 -40 4 -40 15 0 11 11 15 40 15 29 0 40 -4 40
-15z m110 0 c0 -11 -11 -15 -40 -15 -29 0 -40 4 -40 15 0 11 11 15 40 15 29 0
40 -4 40 -15z m108 -2 c2 -9 -9 -13 -37 -13 -30 0 -41 4 -41 16 0 11 9 14 37
12 20 -2 38 -9 41 -15z m113 1 c11 -14 8 -15 -31 -12 -24 2 -45 9 -48 16 -6
18 63 15 79 -4z m-1233 -46 c-5 -15 -88 -24 -88 -10 0 16 13 22 53 22 26 0 37
-4 35 -12z m112 -3 c0 -11 -12 -15 -45 -15 -35 0 -43 3 -39 15 4 10 20 15 45
15 28 0 39 -4 39 -15z m120 0 c0 -11 -12 -15 -45 -15 -42 0 -54 7 -38 23 3 4
24 7 45 7 27 0 38 -4 38 -15z m110 0 c0 -11 -12 -15 -51 -15 -45 0 -50 2 -39
15 7 9 29 15 51 15 28 0 39 -4 39 -15z m118 3 c-3 -7 -23 -14 -46 -16 -33 -2
-42 0 -42 12 0 12 11 16 46 16 32 0 44 -4 42 -12z m112 -3 c0 -11 -12 -15 -45
-15 -42 0 -54 7 -38 23 3 4 24 7 45 7 27 0 38 -4 38 -15z m118 -2 c2 -9 -10
-13 -42 -13 -35 0 -46 4 -46 16 0 12 9 14 42 12 23 -2 43 -9 46 -15z m112 2
c0 -11 -12 -15 -45 -15 -33 0 -45 4 -45 15 0 11 12 15 45 15 33 0 45 -4 45
-15z m118 -2 c2 -9 -10 -13 -42 -13 -35 0 -46 4 -46 16 0 12 9 14 42 12 23 -2
43 -9 46 -15z m110 -1 c3 -10 -7 -12 -39 -10 -24 2 -44 9 -47 16 -3 10 7 12
39 10 24 -2 44 -9 47 -16z m116 3 c4 -12 -4 -15 -39 -15 -33 0 -45 4 -45 15 0
11 11 15 39 15 25 0 41 -5 45 -15z m114 -3 c3 -10 -7 -12 -39 -10 -24 2 -44 9
-47 16 -3 10 7 12 39 10 24 -2 44 -9 47 -16z m-445 -42 c-4 -16 -14 -20 -49
-20 -32 0 -44 4 -44 14 0 11 14 16 48 19 26 2 48 4 49 5 0 1 -1 -7 -4 -18z
m-845 -2 c-5 -15 -88 -24 -88 -10 0 16 13 22 53 22 26 0 37 -4 35 -12z m120 0
c-3 -7 -23 -14 -46 -16 -33 -2 -42 0 -42 12 0 12 11 16 46 16 32 0 44 -4 42
-12z m122 -3 c0 -11 -12 -15 -45 -15 -33 0 -45 4 -45 15 0 11 12 15 45 15 33
0 45 -4 45 -15z m124 0 c4 -12 -4 -15 -44 -15 -38 0 -50 4 -50 15 0 11 12 15
44 15 30 0 46 -5 50 -15z m116 0 c0 -11 -12 -15 -45 -15 -33 0 -45 4 -45 15 0
11 12 15 45 15 33 0 45 -4 45 -15z m120 0 c0 -11 -12 -15 -45 -15 -33 0 -45 4
-45 15 0 11 12 15 45 15 33 0 45 -4 45 -15z m120 0 c0 -11 -12 -15 -45 -15
-33 0 -45 4 -45 15 0 11 12 15 45 15 33 0 45 -4 45 -15z m240 0 c0 -11 -12
-15 -45 -15 -33 0 -45 4 -45 15 0 11 12 15 45 15 33 0 45 -4 45 -15z m120 0
c0 -11 -12 -15 -45 -15 -33 0 -45 4 -45 15 0 11 12 15 45 15 33 0 45 -4 45
-15z m118 -2 c2 -9 -10 -13 -42 -13 -35 0 -46 4 -46 16 0 12 9 14 42 12 23 -2
43 -9 46 -15z m120 -1 c3 -10 -7 -12 -39 -10 -24 2 -44 9 -47 16 -3 10 7 12
39 10 24 -2 44 -9 47 -16z m-1095 -47 c1 -5 -19 -11 -44 -13 -38 -2 -47 0 -51
15 -4 16 0 18 44 13 27 -3 50 -9 51 -15z m-253 0 c0 -11 -12 -15 -45 -15 -42
0 -54 7 -38 23 3 4 24 7 45 7 27 0 38 -4 38 -15z m130 0 c0 -11 -12 -15 -50
-15 -46 0 -60 7 -43 23 3 4 26 7 50 7 32 0 43 -4 43 -15z m250 0 c0 -11 -12
-15 -50 -15 -46 0 -60 7 -43 23 3 4 26 7 50 7 32 0 43 -4 43 -15z m120 0 c0
-11 -12 -15 -50 -15 -40 0 -48 3 -44 15 4 10 20 15 50 15 32 0 44 -4 44 -15z
m130 0 c0 -11 -12 -15 -50 -15 -46 0 -60 7 -43 23 3 4 26 7 50 7 32 0 43 -4
43 -15z m120 0 c0 -11 -12 -15 -45 -15 -33 0 -45 4 -45 15 0 11 12 15 45 15
33 0 45 -4 45 -15z m128 -2 c2 -9 -11 -13 -47 -13 -39 0 -51 4 -51 16 0 12 10
14 47 12 26 -2 48 -9 51 -15z m126 2 c4 -12 -4 -15 -44 -15 -38 0 -50 4 -50
15 0 11 12 15 44 15 30 0 46 -5 50 -15z m124 -2 c2 -9 -11 -13 -47 -13 -39 0
-51 4 -51 16 0 12 10 14 47 12 26 -2 48 -9 51 -15z m126 2 c4 -12 -4 -15 -44
-15 -38 0 -50 4 -50 15 0 11 12 15 44 15 30 0 46 -5 50 -15z m124 -3 c3 -10
-8 -12 -44 -10 -28 2 -49 8 -52 16 -3 10 8 12 44 10 28 -2 49 -8 52 -16z
m-388 -47 c0 -13 -50 -15 -351 -15 -276 0 -350 3 -347 13 5 14 256 24 526 19
142 -2 172 -5 172 -17z m-1006 0 c-4 -11 -21 -15 -55 -15 -46 0 -59 7 -42 23
3 4 28 7 54 7 39 0 47 -3 43 -15z m134 3 c-5 -15 -108 -24 -108 -10 0 17 14
22 63 22 34 0 47 -4 45 -12z m132 -3 c0 -11 -12 -15 -50 -15 -38 0 -50 4 -50
15 0 11 12 15 50 15 38 0 50 -4 50 -15z m890 -1 c0 -12 -10 -14 -52 -12 -74 4
-77 28 -4 28 44 0 56 -3 56 -16z m130 1 c0 -11 -12 -15 -50 -15 -38 0 -50 4
-50 15 0 11 12 15 50 15 38 0 50 -4 50 -15z m138 -3 c3 -10 -9 -12 -49 -10
-32 2 -54 8 -57 16 -3 10 9 12 49 10 32 -2 54 -8 57 -16z m-498 -56 c0 -8 3
-21 6 -30 6 -14 -23 -16 -275 -16 -155 0 -281 3 -281 8 0 4 3 17 6 30 l6 22
269 0 c226 0 269 -2 269 -14z m720 -124 c0 -16 -1971 -13 -1977 3 -2 7 331 10
987 10 787 0 990 -3 990 -13z"/>
<path d="M1087 1278 c-10 -8 -54 -125 -103 -271 -85 -253 -87 -259 -68 -277
14 -13 25 -16 40 -10 18 7 38 56 108 267 47 142 86 261 86 265 0 9 -30 38 -39
38 -4 0 -15 -6 -24 -12z"/>
<path d="M702 1107 c-50 -51 -92 -99 -92 -107 0 -9 45 -60 99 -114 102 -102
118 -109 141 -66 10 19 3 29 -64 99 l-76 77 66 64 c72 71 86 96 72 123 -19 36
-51 19 -146 -76z"/>
<path d="M1202 1188 c-22 -22 -12 -43 60 -115 l72 -73 -72 -73 c-73 -73 -86
-103 -57 -127 8 -6 23 -9 33 -6 29 10 192 181 192 202 0 23 -178 204 -201 204
-8 0 -20 -5 -27 -12z"/>
</g>
</svg>
